<svg id="pfade" xmlns="http://www.w3.org/2000/svg" viewBox="0 0 80 80">
  <defs>
    <style>
      .cls-1, .cls-2, .cls-3 {
        fill: none;
        stroke: #4794da;
      }

      .cls-1, .cls-3 {
        stroke-miterlimit: 10;
      }

      .cls-1, .cls-2 {
        stroke-width: 2px;
      }

      .cls-2 {
        stroke-linecap: round;
        stroke-linejoin: round;
      }
    </style>
  </defs>
  <path class="cls-1" d="M45.2694,19.5503,19.8379,44.9525c-2.6402,2.6401-1.3778,8.1837,2.8194,12.3811,4.1977,4.1974,9.7412,5.4601,12.3816,2.8202L60.4576,34.7345"/>
  <path class="cls-1" d="M45.2547,19.5356c2.6402-2.6404,8.1838-1.3778,12.3811,2.8195,4.1975,4.1977,5.46,9.7412,2.8199,12.3813"/>
  <path class="cls-1" d="M51.7628,23.0482l-9.5151,9.5154c-.8514.8512-.4443,2.6383.9089,3.9917,1.3531,1.3534,3.1405,1.7601,3.9918.9089l9.5153-9.5151"/>
  <path class="cls-1" d="M56.6639,27.9487c-.8515.8516-2.6385.444-3.9918-.9089-1.3532-1.3534-1.7601-3.1405-.9091-3.992.8512-.8509,2.6382-.4438,3.9915.9096C57.1079,25.3108,57.515,27.0974,56.6639,27.9487Z"/>
  <g>
    <line class="cls-2" x1="30.6092" y1="54.0168" x2="25.6947" y2="54.0167"/>
    <line class="cls-2" x1="25.6947" y1="54.0167" x2="25.6948" y2="49.1023"/>
    <line class="cls-2" x1="26.1041" y1="53.6074" x2="35.1506" y2="44.5608"/>
  </g>
  <path class="cls-1" d="M43.0018,31.8083c-1.9551-1.0249-3.8079-1.1693-4.7845-.1926-1.4738,1.4739-.3947,4.9425,2.4105,7.7479,2.8052,2.8051,6.2739,3.8842,7.7478,2.4107,1.0368-1.0369.8105-3.0602-.3911-5.1457"/>
  <path class="cls-1" d="M38.2173,31.6157,32.88,36.9526c-1.4738,1.4741-.3946,4.9429,2.4106,7.7479,2.8052,2.8053,6.2739,3.8846,7.7478,2.4107l5.3372-5.3369"/>
  <path class="cls-3" d="M52.4735,34.7374a12.21965,12.21965,0,0,0,2.1217.8179c2.4228.6723,4.6652.3764,6.077-1.0354"/>
  <path class="cls-3" d="M45.4715,19.3193c-1.4122,1.412-1.708,3.6544-1.0355,6.0775a11.84689,11.84689,0,0,0,.5746,1.5994"/>
</svg>
