<svg id="pfade" xmlns="http://www.w3.org/2000/svg" viewBox="0 0 80 80">
  <defs>
    <style>
      .cls-1, .cls-2 {
        fill: none;
        stroke: #ffffff;
        stroke-linecap: round;
        stroke-linejoin: round;
      }

      .cls-1 {
        stroke-width: 2px;
      }
    </style>
  </defs>
  <path class="cls-1" d="M41.7799,30.9305a4.7803,4.7803,0,1,1-9.5606,0c0-2.6406,4.7798-10.9301,4.7798-10.9301S41.7799,28.2899,41.7799,30.9305Z"/>
  <path class="cls-1" d="M48.2457,20.14a2.549,2.549,0,0,1-5.0979,0c0-1.4084,2.5486-5.8285,2.5486-5.8285S48.2457,18.7316,48.2457,20.14Z"/>
  <polyline class="cls-1" points="51.955 26.831 51.955 30.589 54.175 39.129 54.175 58.766 52.125 61.5 27.875 61.5 25.825 58.766 25.825 39.129 28.045 30.589 28.045 26.831"/>
  <path class="cls-2" d="M25.8248,46.7403c17.5908,0,11.6133,6.1482,28.3503,6.1482"/>
</svg>
