<?xml version="1.0" encoding="utf-8"?>
<!-- Generator: Adobe Illustrator 16.0.4, SVG Export Plug-In . SVG Version: 6.00 Build 0)  -->
<!DOCTYPE svg PUBLIC "-//W3C//DTD SVG 1.1//EN" "http://www.w3.org/Graphics/SVG/1.1/DTD/svg11.dtd">
<svg version="1.1" id="pfade" xmlns="http://www.w3.org/2000/svg" xmlns:xlink="http://www.w3.org/1999/xlink" x="0px" y="0px"
	 width="80px" height="80px" viewBox="0 0 80 80" enable-background="new 0 0 80 80" xml:space="preserve">
<g>
	<path fill="#4794DA" d="M17.885,30.611h4.815c1.991,0,3.094,0.484,3.954,1.291c0.969,0.915,1.399,2.206,1.399,3.578
		c0,1.991-0.942,3.901-3.712,4.493v0.054c1.13,0.215,1.668,0.753,2.045,1.829l2.636,7.532h-2.556l-2.152-6.349
		c-0.538-1.56-1.211-2.152-2.986-2.152h-1.076v8.501h-2.367V30.611z M20.253,38.951h1.829c2.529,0,3.497-1.668,3.497-3.309
		c0-2.098-1.372-3.094-3.443-3.094h-1.883V38.951z"/>
	<path fill="#4794DA" d="M31.849,30.611h8.393v2.045h-6.026v5.972h5.73v2.044h-5.73v8.716h-2.367V30.611z"/>
	<path fill="#4794DA" d="M43.31,30.611h2.367v18.777H43.31V30.611z"/>
	<path fill="#4794DA" d="M49.552,30.611h4.089c2.502,0,3.928,0.592,5.004,1.345c1.668,1.157,3.47,3.524,3.47,7.748
		c0,5.434-2.583,9.684-9.631,9.684h-2.932V30.611z M51.919,47.344h1.426c4.143,0,6.295-2.825,6.295-7.64
		c0-3.928-1.668-7.048-6.295-7.048h-1.426V47.344z"/>
</g>
</svg>
