<svg id="pfade" xmlns="http://www.w3.org/2000/svg" viewBox="0 0 80 80">
  <defs>
    <style>
      .cls-1, .cls-2 {
        fill: none;
        stroke: #4794da;
        stroke-linecap: round;
        stroke-linejoin: round;
      }

      .cls-1 {
        stroke-width: 2px;
      }
    </style>
  </defs>
  <polygon class="cls-1" points="56.5 33 23.5 33 18.5 61.5 61.5 61.5 56.5 33"/>
  <polygon class="cls-1" points="61.875 19.015 18 19.015 26.443 27.609 53.432 27.609 61.875 19.015"/>
  <path class="cls-1" d="M50.7085,46.8336A10.7085,10.7085,0,1,1,40,36.125,10.70834,10.70834,0,0,1,50.7085,46.8336Z"/>
  <g>
    <line class="cls-1" x1="40.27" y1="41.6492" x2="45.1846" y2="41.6492"/>
    <line class="cls-1" x1="45.1846" y1="41.6492" x2="45.1846" y2="46.5636"/>
    <line class="cls-1" x1="44.7749" y1="42.0587" x2="39.9685" y2="46.865"/>
  </g>
  <rect class="cls-1" x="37.9377" y="27.6091" width="4.1101" height="5.3909"/>
  <line class="cls-2" x1="29.2915" y1="46.8336" x2="31.458" y2="46.8336"/>
  <line class="cls-2" x1="48.5417" y1="46.8336" x2="50.7085" y2="46.8336"/>
  <line class="cls-2" x1="40" y1="57.542" x2="40" y2="55.3756"/>
  <line class="cls-2" x1="40" y1="38.292" x2="40" y2="36.125"/>
  <line class="cls-2" x1="47.5725" y1="54.4057" x2="46.04" y2="52.8735"/>
  <line class="cls-2" x1="33.9602" y1="40.7937" x2="32.4282" y2="39.2616"/>
  <line class="cls-2" x1="44.2192" y1="56.6759" x2="43.3657" y2="54.6843"/>
  <line class="cls-2" x1="36.6345" y1="38.9829" x2="35.7808" y2="36.9916"/>
  <line class="cls-2" x1="30.1973" y1="42.5227" x2="32.1809" y2="43.395"/>
  <line class="cls-2" x1="47.8188" y1="50.272" x2="49.8027" y2="51.1444"/>
  <line class="cls-2" x1="32.4277" y1="54.406" x2="33.96" y2="52.8735"/>
  <line class="cls-2" x1="30.0786" y1="50.8635" x2="32.0862" y2="50.048"/>
  <line class="cls-2" x1="47.9141" y1="43.6191" x2="49.9214" y2="42.8041"/>
  <line class="cls-2" x1="35.9458" y1="56.7451" x2="36.7661" y2="54.7395"/>
  <line class="cls-2" x1="43.2339" y1="38.928" x2="44.0542" y2="36.9223"/>
</svg>
