<svg id="pfade" xmlns="http://www.w3.org/2000/svg" viewBox="0 0 80 80">
  <defs>
    <style>
      .cls-1 {
        fill: none;
        stroke: #ffffff;
        stroke-linecap: round;
        stroke-linejoin: round;
        stroke-width: 2px;
      }
    </style>
  </defs>
  <polyline class="cls-1" points="19.567 40.566 18.18 31.083 14.322 31.015"/>
  <polyline class="cls-1" points="38.481 30.989 34.123 30.989 32.737 21.563"/>
  <polyline class="cls-1" points="24.546 48.716 28.886 48.716 30.273 58.143"/>
  <polyline class="cls-1" points="59.447 39.207 60.833 48.689 64.596 48.621"/>
  <polyline class="cls-1" points="54.454 30.989 50.138 30.989 48.752 21.563"/>
  <polygon class="cls-1" points="53.695 58.167 46.256 58.167 57.311 21.6 64.751 21.6 53.695 58.167"/>
  <polygon class="cls-1" points="37.704 58.167 30.264 58.167 41.319 21.6 48.759 21.6 37.704 58.167"/>
  <polyline class="cls-1" points="40.561 48.716 44.901 48.716 46.256 58.143"/>
  <polygon class="cls-1" points="21.689 58.167 14.249 58.167 25.304 21.6 32.744 21.6 21.689 58.167"/>
</svg>
