<svg id="pfade" xmlns="http://www.w3.org/2000/svg" viewBox="0 0 80 80">
  <defs>
    <style>
      .cls-1, .cls-2, .cls-3, .cls-4 {
        fill: none;
        stroke: #4794da;
      }

      .cls-1, .cls-4 {
        stroke-linecap: round;
        stroke-linejoin: round;
      }

      .cls-2, .cls-3 {
        stroke-miterlimit: 10;
      }

      .cls-3, .cls-4 {
        stroke-width: 2px;
      }
    </style>
  </defs>
  <line class="cls-1" x1="42.6522" y1="51.261" x2="44.3373" y2="52.9459"/>
  <path class="cls-2" d="M51.0692,35.0415,48.9459,32.918c-2.8573-2.8569-8.8553-1.4909-13.3975,3.0513-4.5422,4.542-5.9083,10.5407-3.0513,13.3975l2.0211,2.0211"/>
  <path class="cls-3" d="M41.2661,52.5907c-2.6483.753-5.1041.441-6.6457-1.1007-2.857-2.8568-1.4909-8.8552,3.0514-13.3972,4.5423-4.5424,10.5401-5.9085,13.3974-3.0513,2.8566,2.857,1.4907,8.8548-3.0516,13.3968a17.12787,17.12787,0,0,1-4.7797,3.409"/>
  <path class="cls-2" d="M25.2658,33.5148c-1.3599-1.3599-.7092-4.2144,1.4522-6.3763,2.1619-2.1617,5.0164-2.8117,6.3761-1.4521"/>
  <path class="cls-2" d="M22.2966,30.5455c-1.3596-1.3596-.7095-4.2146,1.4524-6.3762,2.1617-2.1617,5.0162-2.8118,6.3758-1.4522"/>
  <path class="cls-2" d="M28.2353,36.484c-1.3599-1.3596-.7096-4.2145,1.4523-6.3761,2.1616-2.162,5.0161-2.8119,6.3759-1.4522"/>
  <path class="cls-4" d="M18.0643,26.313,29.1277,37.3763l.8135.8136s-.6374,7.9837,4.8718,13.4928"/>
  <path class="cls-4" d="M51.2618,35.234c-5.5702-5.5701-13.4923-4.8721-13.4923-4.8721l-.8135-.8139L25.8925,18.4847"/>
  <path class="cls-2" d="M30.424,39.2971a7.17529,7.17529,0,0,1,2.5313-5.9846,8.41925,8.41925,0,0,1,6.4452-2.6106"/>
  <circle class="cls-3" cx="53.1847" cy="58.8513" r="2.22895"/>
  <path class="cls-3" d="M56.8124,49.2955a2.2289,2.2289,0,1,1-2.2289-2.229A2.22895,2.22895,0,0,1,56.8124,49.2955Z"/>
  <path class="cls-3" d="M44.774,37.2572a2.2289,2.2289,0,1,1-2.2289-2.2289A2.22891,2.22891,0,0,1,44.774,37.2572Z"/>
  <path class="cls-3" d="M43.4948,46.9327a2.2289,2.2289,0,1,1-2.2289-2.229A2.229,2.229,0,0,1,43.4948,46.9327Z"/>
  <line class="cls-1" x1="58.6005" y1="52.2124" x2="60.2856" y2="53.8973"/>
  <line class="cls-1" x1="46.7157" y1="37.8011" x2="48.4008" y2="39.4859"/>
  <line class="cls-1" x1="46.7157" y1="41.4067" x2="48.4008" y2="43.0915"/>
  <line class="cls-1" x1="47.3121" y1="52.1035" x2="48.9971" y2="53.7888"/>
  <line class="cls-1" x1="59.4431" y1="55.7888" x2="61.1281" y2="57.4737"/>
  <line class="cls-1" x1="56.4534" y1="61.3888" x2="58.1384" y2="63.0737"/>
</svg>
